<?xml version="1.0" encoding="UTF-8" standalone="no"?>
<!DOCTYPE svg PUBLIC "-//W3C//DTD SVG 20010904//EN"
              "http://www.w3.org/TR/2001/REC-SVG-20010904/DTD/svg10.dtd">

<svg xmlns="http://www.w3.org/2000/svg"
     width="165.785mm" height="165.785mm"
     viewBox="0 0 470 470">
  <path id="Selection"
        fill="white" stroke="black" stroke-width="0"
        d="M 213.00,0.21
           C 213.00,0.21 249.00,0.21 249.00,0.21
             274.15,0.04 305.98,8.79 329.00,18.72
             354.82,29.86 378.66,45.58 399.00,65.04
             433.44,97.98 458.12,144.10 466.58,191.00
             470.57,213.14 470.26,228.79 470.00,251.00
             469.87,262.19 465.76,284.93 462.85,296.00
             454.14,329.05 438.07,359.64 416.39,386.00
             399.85,406.10 378.55,424.48 356.00,437.58
             328.16,453.74 300.92,463.70 269.00,468.13
             262.40,469.05 255.67,469.99 249.00,470.00
             249.00,470.00 219.00,470.00 219.00,470.00
             198.43,469.76 168.13,462.25 149.00,454.60
             84.47,428.79 36.08,379.67 12.69,314.00
             6.35,296.19 0.03,267.82 0.00,249.00
             0.00,249.00 0.00,219.00 0.00,219.00
             0.16,205.29 4.77,182.36 8.58,169.00
             25.94,108.16 67.43,57.36 123.00,27.31
             143.90,16.00 167.62,7.64 191.00,3.42
             191.00,3.42 213.00,0.21 213.00,0.21 Z
           M 217.00,41.14
           C 190.03,45.16 174.09,48.40 149.00,60.32
             106.29,80.62 70.09,120.86 53.42,165.00
             41.63,196.24 40.62,215.31 41.00,248.00
             41.13,259.17 44.49,276.17 47.58,287.00
             60.22,331.31 85.36,367.28 123.00,394.14
             137.77,404.68 154.80,413.26 172.00,419.00
             186.77,423.93 206.43,428.81 222.00,429.00
             222.00,429.00 246.00,429.00 246.00,429.00
             269.08,428.96 302.62,419.38 323.00,408.68
             349.32,394.87 371.62,376.64 389.77,353.00
             409.38,327.45 423.62,294.04 427.72,262.00
             429.41,248.74 429.15,235.35 429.00,222.00
             428.92,215.27 427.14,203.75 425.80,197.00
             418.13,158.44 399.78,124.77 372.00,97.00
             355.30,80.31 336.50,67.39 315.00,57.70
             295.29,48.81 267.69,41.03 246.00,41.14
             246.00,41.14 217.00,41.14 217.00,41.14 Z
           M 198.00,121.47
           C 209.80,119.82 221.59,121.48 231.00,129.33
             241.27,137.90 244.15,148.18 244.00,161.00
             243.78,179.91 230.04,193.19 212.00,196.39
             173.67,203.17 152.37,153.21 182.04,129.02
             187.17,124.83 191.63,122.96 198.00,121.47 Z
           M 287.00,197.24
           C 289.93,197.06 292.04,196.95 295.00,197.24
             335.59,197.94 345.64,253.15 310.00,269.68
             304.35,272.30 298.18,273.13 292.00,272.99
             274.98,272.59 260.24,260.74 256.67,244.00
             255.88,240.31 255.96,236.75 256.00,233.00
             256.06,228.00 256.83,223.59 258.90,219.00
             264.61,206.38 273.89,200.37 287.00,197.24 Z
           M 201.00,273.44
           C 215.92,271.53 230.82,278.15 238.87,291.00
             250.02,308.77 243.46,334.77 225.00,344.68
             217.54,348.68 212.22,349.09 204.00,349.00
             176.69,348.68 160.64,319.02 171.52,295.00
             177.30,282.23 187.71,275.93 201.00,273.44 Z" />
</svg>
